<svg width="20" height="17" viewBox="0 0 20 17" fill="none" xmlns="http://www.w3.org/2000/svg">
<path d="M9.96753 7.125C7.15503 7.125 3.21753 11.4492 3.21753 14.1914C3.21753 15.4219 4.13159 16.125 5.71362 16.125C7.43628 16.125 8.56128 15.2461 9.96753 15.2461C11.3386 15.2461 12.4636 16.125 14.1863 16.125C15.7683 16.125 16.7175 15.4219 16.7175 14.1914C16.7175 11.4492 12.7449 7.125 9.96753 7.125ZM4.7644 6.70312C4.41284 5.47266 3.28784 4.69922 2.26831 4.94531C1.24878 5.19141 0.686279 6.35156 1.073 7.58203C1.42456 8.8125 2.54956 9.58594 3.56909 9.33984C4.58862 9.09375 5.15112 7.93359 4.7644 6.70312ZM7.75269 5.96484C8.84253 5.68359 9.36987 4.20703 8.98315 2.69531C8.56128 1.14844 7.33081 0.164062 6.24097 0.445312C5.15112 0.726562 4.62378 2.20312 5.0105 3.71484C5.43237 5.26172 6.66284 6.24609 7.75269 5.96484ZM17.6316 4.94531C16.6121 4.69922 15.4871 5.47266 15.1355 6.70312C14.7488 7.93359 15.3113 9.09375 16.3308 9.33984C17.3503 9.58594 18.4753 8.8125 18.8269 7.58203C19.2136 6.35156 18.6511 5.19141 17.6316 4.94531ZM12.1472 5.96484C13.2371 6.24609 14.4675 5.26172 14.8894 3.71484C15.2761 2.20312 14.7488 0.726562 13.6589 0.445312C12.5691 0.164062 11.3386 1.14844 10.9167 2.69531C10.53 4.20703 11.0574 5.68359 12.1472 5.96484Z" fill="#FFDA47"/>
</svg>
