<svg width="3061" height="195" viewBox="0 0 3061 195" fill="none" xmlns="http://www.w3.org/2000/svg">
<path fill-rule="evenodd" clip-rule="evenodd" d="M1.21407e-05 125.563C1.45522e-05 111.771 118.773 -0.945432 382.625 0.0058042C533.284 0.00583055 778.801 79.9059 778.801 79.9059C778.801 79.9059 989.245 137.453 1147.88 141.258C1306.5 145.062 1402.96 139.831 1530.5 103.686C1658.04 67.5405 1785.58 41.8584 1913.13 32.3465C2040.67 23.7859 2168.21 30.4442 2295.75 48.5169C2423.29 67.5407 2574.41 185.488 2997.23 70.3943L3061 61.8336L3061 195L2997.23 195C2933.46 195 2805.92 195 2678.38 195C2550.83 195 2423.29 195 2295.75 195C2168.21 195 2040.67 195 1913.12 195C1785.58 195 1658.04 195 1530.5 195C1402.96 195 1275.42 195 1147.88 195C1020.33 195 892.792 195 765.25 195C637.708 195 510.167 195 382.625 195C255.083 195 127.542 195 63.7708 195L0 195C0 195 9.72922e-06 139.355 1.21407e-05 125.563Z" fill="white"/>
</svg>
