<svg width="162" height="80" viewBox="0 0 162 80" fill="none" xmlns="http://www.w3.org/2000/svg">
<g clip-path="url(#clip0_2_1848)">
<path fill-rule="evenodd" clip-rule="evenodd" d="M74.8105 78.4853L78.6654 78.9193C78.6223 72.3197 79.8458 65.7733 82.2691 59.6365C82.2691 59.6365 77.0022 68.2601 74.8105 78.4853Z" fill="#7B2180"/>
<path fill-rule="evenodd" clip-rule="evenodd" d="M114.706 26.4916C114.1 16.4791 105.81 25.0117 100.17 22.7896C97.3161 21.6612 97.7233 18.1457 90.8668 19.3436C87.6916 19.9192 84.633 21.0161 81.8143 22.5899C79.2155 19.847 79.2155 17.9765 77.6173 14.8299C76.1836 11.9959 74.5117 11.2234 73.4375 13.5279C71.6877 17.5584 71.3426 23.837 72.4024 32.3637C71.7657 33.892 71.4063 35.522 71.3412 37.1768C71.3412 37.0249 71.3412 36.8773 71.3412 36.7428C71.051 42.3111 70.96 43.4829 70.7608 45.7354C70.5882 47.7926 70.2139 49.8277 69.6433 51.8114C72.472 50.6404 74.891 48.656 76.5951 46.1086C76.6947 45.9611 76.79 45.8135 76.8853 45.6746C79.2329 42.1288 79.2329 37.5153 79.2329 37.5153C79.336 35.7906 79.9683 34.1399 81.0433 32.789C81.2336 30.975 81.7502 29.2105 82.568 27.581C83.4515 28.299 84.2546 29.111 84.9632 30.0027C85.5131 29.8174 86.0806 29.6894 86.6567 29.6208L86.6351 29.5861C86.6351 29.5861 92.3264 29.0739 92.8375 29.1217C93.3486 29.1694 95.7092 31.257 96.9133 31.2092C98.1174 31.1615 99.694 30.8837 99.8369 31.0704C99.9799 31.257 100.764 36.5128 99.1396 37.9016C98.243 38.6741 96.7487 39.898 95.5922 40.8398C95.5922 40.8398 91.4298 44.4464 89.8532 47.3499C89.8532 47.3499 92.3221 44.3118 94.9252 43.0793C94.8906 43.7563 94.8733 44.4377 94.8733 45.1278C94.8512 48.9769 95.3599 52.8107 96.3849 56.5204V56.5725C96.3849 56.5725 96.3849 56.5985 96.3849 56.6115C96.9592 58.9449 96.9795 61.3808 96.4439 63.7234C95.9083 66.0661 94.8318 68.2502 93.301 70.1004C90.8842 72.9998 89.0792 76.3602 87.9951 79.9783C91.131 72.227 104.372 64.6406 100.015 54.1724C97.6193 46.0565 99.6334 43.8822 106.698 39.6203C111.107 36.9989 115.174 34.1518 114.706 26.4916Z" fill="#7B2180"/>
<path d="M87.3627 1.92268C87.7335 1.92268 88.0341 1.6215 88.0341 1.24998C88.0341 0.878452 87.7335 0.577271 87.3627 0.577271C86.9919 0.577271 86.6913 0.878452 86.6913 1.24998C86.6913 1.6215 86.9919 1.92268 87.3627 1.92268Z" fill="#7B2180"/>
<path d="M89.8532 5.94155C90.5709 5.94155 91.1526 5.35862 91.1526 4.63954C91.1526 3.92045 90.5709 3.33752 89.8532 3.33752C89.1356 3.33752 88.5538 3.92045 88.5538 4.63954C88.5538 5.35862 89.1356 5.94155 89.8532 5.94155Z" fill="#7B2180"/>
<path d="M121.052 21.9954C121.769 21.9954 122.351 21.4125 122.351 20.6934C122.351 19.9743 121.769 19.3914 121.052 19.3914C120.334 19.3914 119.752 19.9743 119.752 20.6934C119.752 21.4125 120.334 21.9954 121.052 21.9954Z" fill="#7B2180"/>
<path d="M91.759 1.30201C92.1178 1.30201 92.4087 1.01055 92.4087 0.651006C92.4087 0.291465 92.1178 0 91.759 0C91.4002 0 91.1093 0.291465 91.1093 0.651006C91.1093 1.01055 91.4002 1.30201 91.759 1.30201Z" fill="#7B2180"/>
<path d="M96.2679 3.19421C95.6391 3.19421 95.0245 3.38105 94.5017 3.73108C93.9789 4.08112 93.5714 4.57864 93.3307 5.16073C93.0901 5.74282 93.0272 6.38334 93.1498 7.00128C93.2725 7.61923 93.5753 8.18685 94.0199 8.63236C94.4645 9.07787 95.031 9.38127 95.6477 9.50419C96.2644 9.6271 96.9036 9.56402 97.4845 9.32291C98.0655 9.0818 98.562 8.67349 98.9113 8.14962C99.2607 7.62576 99.4471 7.00986 99.4471 6.3798C99.4471 5.53493 99.1122 4.72467 98.516 4.12725C97.9197 3.52984 97.1111 3.19421 96.2679 3.19421ZM95.9907 4.70021H95.9604C95.7111 4.67178 95.4588 4.70918 95.2284 4.80871C94.8707 4.96313 94.5856 5.24886 94.4315 5.60728C94.3443 5.81429 94.3044 6.03818 94.3145 6.26262C94.3145 6.33514 94.2858 6.40469 94.2346 6.45596C94.1834 6.50724 94.114 6.53605 94.0416 6.53605C93.9693 6.53605 93.8999 6.50724 93.8487 6.45596C93.7975 6.40469 93.7688 6.33514 93.7688 6.26262C93.7628 6.08461 93.7803 5.90659 93.8207 5.73314C93.9093 5.36344 94.0982 5.02548 94.3665 4.75664C94.6348 4.48779 94.9721 4.29853 95.341 4.20978C95.5717 4.17448 95.8054 4.16284 96.0384 4.17506C96.1019 4.1844 96.16 4.21624 96.2021 4.26481C96.2442 4.31338 96.2676 4.37547 96.2679 4.43981C96.2635 4.51042 96.2324 4.57669 96.1809 4.62508C96.1293 4.67348 96.0613 4.70035 95.9907 4.70021Z" fill="#FFDA47"/>
<path d="M103.462 10.2034C102.528 10.1688 101.604 10.4127 100.809 10.9041C100.013 11.3956 99.3801 12.1126 98.9909 12.9643C98.6018 13.8161 98.4736 14.7644 98.6224 15.6892C98.7713 16.6141 99.1906 17.4738 99.8273 18.1598C100.464 18.8458 101.289 19.3271 102.199 19.5429C103.109 19.7586 104.062 19.6991 104.938 19.3719C105.814 19.0447 106.574 18.4645 107.12 17.7046C107.667 16.9448 107.977 16.0395 108.01 15.1033C108.055 13.8495 107.601 12.6293 106.748 11.7105C105.895 10.7918 104.713 10.2498 103.462 10.2034ZM102.661 18.2846C102.047 18.2857 101.451 18.0723 100.977 17.681C100.502 17.2897 100.179 16.745 100.062 16.1406C100.03 15.8377 100.03 15.5321 100.062 15.2292C100.077 15.1461 100.121 15.071 100.186 15.0176C100.251 14.9642 100.333 14.9361 100.417 14.9384C100.512 14.9429 100.601 14.9847 100.665 15.0545C100.729 15.1244 100.763 15.2168 100.759 15.3117V15.3507C100.711 15.6744 100.749 16.0051 100.868 16.3099C101.054 16.7825 101.411 17.167 101.868 17.3862C102.132 17.5108 102.421 17.5732 102.713 17.5685C102.804 17.5752 102.888 17.6169 102.949 17.6849C103.01 17.753 103.041 17.8419 103.038 17.933C103.037 17.9813 103.027 18.0289 103.008 18.0731C102.988 18.1172 102.96 18.157 102.925 18.1898C102.889 18.2227 102.848 18.2481 102.802 18.2644C102.757 18.2807 102.709 18.2875 102.661 18.2846Z" fill="#7B2180"/>
<path d="M109.409 4.39643C107.959 4.34546 106.538 4.80837 105.394 5.70376C104.251 6.59915 103.46 7.86969 103.159 9.292C103.311 9.292 103.462 9.292 103.618 9.292C104.498 9.29542 105.364 9.51361 106.14 9.92767C106.917 10.3417 107.581 10.9392 108.076 11.6684C108.57 12.3976 108.88 13.2365 108.978 14.1125C109.076 14.9886 108.959 15.8753 108.638 16.6961H108.972C109.787 16.7355 110.602 16.6123 111.369 16.3336C112.136 16.0549 112.841 15.6262 113.442 15.0726C114.042 14.5189 114.527 13.8512 114.868 13.1082C115.209 12.3652 115.4 11.5617 115.428 10.7444C115.457 9.92711 115.323 9.11224 115.035 8.34709C114.747 7.58193 114.31 6.88174 113.75 6.28715C113.189 5.69256 112.517 5.21541 111.771 4.88339C111.025 4.55137 110.221 4.37109 109.405 4.35303L109.409 4.39643ZM113.455 10.1774C113.435 10.2854 113.378 10.3828 113.293 10.452C113.208 10.5212 113.101 10.5578 112.991 10.5549C112.87 10.546 112.757 10.4904 112.676 10.3997C112.596 10.309 112.553 10.1904 112.558 10.0689C112.557 10.053 112.557 10.037 112.558 10.0211C112.616 9.59728 112.565 9.16566 112.411 8.76685C112.172 8.14966 111.707 7.64686 111.111 7.36068C110.768 7.19802 110.391 7.11637 110.011 7.12197C109.896 7.10732 109.791 7.05012 109.716 6.96164C109.641 6.87316 109.602 6.75981 109.607 6.64388C109.611 6.52796 109.658 6.41786 109.74 6.33526C109.821 6.25266 109.93 6.20353 110.046 6.19755H110.072C110.373 6.19672 110.673 6.23613 110.964 6.31473C111.586 6.48786 112.148 6.83009 112.587 7.3035C113.027 7.7769 113.327 8.36301 113.455 8.99687C113.491 9.38226 113.491 9.77027 113.455 10.1557V10.1774Z" fill="#7B2180"/>
<path d="M116.729 9.99951C116.778 10.3256 116.802 10.6549 116.803 10.9847C116.802 12.5487 116.287 14.0689 115.337 15.3101C114.387 16.5512 113.056 17.4441 111.549 17.8506C112.034 18.4594 112.657 18.9446 113.365 19.2666C114.073 19.5887 114.847 19.7386 115.624 19.704C116.401 19.6695 117.159 19.4515 117.836 19.0679C118.513 18.6842 119.09 18.1457 119.52 17.4963C119.95 16.8468 120.221 16.1048 120.31 15.3306C120.4 14.5564 120.306 13.772 120.035 13.0413C119.765 12.3105 119.326 11.6541 118.755 11.1255C118.183 10.597 117.495 10.2111 116.746 9.99951H116.729Z" fill="#FFDA47"/>
<path d="M116.279 4.48757C115.498 4.48726 114.727 4.66225 114.022 4.9997C115.269 5.98984 116.129 7.38782 116.452 8.94914C117.371 9.14525 118.239 9.53042 119.002 10.0803C119.765 10.6301 120.405 11.3327 120.883 12.1434C121.305 11.3486 121.515 10.4576 121.491 9.5575C121.467 8.65736 121.211 7.77878 120.747 7.00753C120.283 6.23628 119.628 5.59871 118.844 5.15705C118.061 4.71538 117.177 4.48472 116.279 4.48757Z" fill="#7B2180"/>
<path d="M29.3057 48.6649C28.7108 48.9327 28.1508 49.2723 27.6382 49.6762C27.1011 50.0928 26.5568 50.5514 26.0052 51.052C25.4552 51.5467 24.8878 52.0719 24.2944 52.6274C23.6952 53.186 23.0569 53.7009 22.3843 54.1681C21.664 54.6642 20.9164 55.1192 20.145 55.5309C19.2862 55.9846 18.3908 56.365 17.4682 56.668C16.4151 57.0129 15.336 57.2727 14.2414 57.4448C12.9517 57.6443 11.6481 57.7401 10.3432 57.7313C8.8674 57.7587 7.40541 57.4423 6.07252 56.8068C4.82159 56.1923 3.71227 55.3231 2.81536 54.2549C1.89615 53.1532 1.19099 51.8887 0.736331 50.5268C0.248122 49.0889 0.00220638 47.5797 0.00866906 46.0609C0.0173996 44.8865 0.134849 43.7155 0.359506 42.5628C0.606296 41.2719 0.94353 40 1.3687 38.7566C1.82103 37.4344 2.35778 36.1428 2.97562 34.8896C3.60979 33.6062 4.33347 32.3691 5.14128 31.1876C5.93065 30.0217 6.81433 28.9229 7.78339 27.9022C8.70815 26.9199 9.73141 26.0356 10.837 25.2634C11.8981 24.5252 13.0514 23.9298 14.2674 23.4927C15.4744 23.0705 16.7441 22.8562 18.0226 22.859C18.8956 22.8588 19.7623 23.0056 20.5868 23.293C21.4482 23.5914 22.2408 24.0608 22.917 24.6732C23.6403 25.3395 24.217 26.1495 24.6106 27.0515C25.0727 28.1095 25.2975 29.2562 25.2689 30.4107C25.2644 31.2946 25.1256 32.1727 24.8574 33.0147C24.5797 33.9061 24.2004 34.7624 23.727 35.5667C23.2434 36.3874 22.6758 37.1554 22.0334 37.8582C21.406 38.5618 20.7013 39.1922 19.9327 39.7375C19.2084 40.2446 18.4243 40.6601 17.5982 40.9744C16.8232 41.2758 15.9996 41.4318 15.1683 41.4344C14.3496 41.482 13.5315 41.3333 12.7817 41.0004C12.5444 40.8919 12.3434 40.717 12.2028 40.4968C12.0623 40.2767 11.988 40.0205 11.9891 39.7592C11.9891 39.6637 11.9891 39.5552 11.9891 39.425C11.9891 39.2948 11.9891 39.1602 11.9891 39.0214C11.9891 38.8087 11.9891 38.5874 12.0237 38.3617C12.0459 38.1483 12.0939 37.9384 12.1667 37.7367C12.2323 37.569 12.3379 37.42 12.4742 37.3027C12.6212 37.176 12.8088 37.1067 13.0026 37.1074C13.128 37.1052 13.2527 37.1258 13.3708 37.1682L13.7216 37.3027C13.8744 37.3568 14.0307 37.4003 14.1894 37.4329C14.4174 37.4792 14.6499 37.4996 14.8824 37.4937C15.6657 37.4857 16.4392 37.3189 17.1564 37.0032C17.9255 36.6712 18.6273 36.2005 19.2267 35.6144C19.8587 34.9984 20.3751 34.2737 20.7514 33.4748C21.1485 32.6187 21.3498 31.6846 21.3404 30.7406C21.3436 30.2309 21.2721 29.7234 21.1282 29.2346C20.9958 28.7733 20.762 28.3477 20.4438 27.989C20.107 27.6132 19.6914 27.3168 19.2267 27.121C18.6489 26.8891 18.0298 26.7783 17.4076 26.7955C16.555 26.798 15.7134 26.9892 14.9431 27.3553C14.1069 27.7501 13.3299 28.2599 12.6345 28.87C11.8594 29.5521 11.1568 30.3127 10.5381 31.1398C9.8639 32.0342 9.25174 32.9738 8.70596 33.9522C8.13795 34.9612 7.63029 36.0033 7.18566 37.0727C6.74441 38.1301 6.36124 39.211 6.03787 40.3103C5.73216 41.3435 5.48917 42.3943 5.3102 43.4569C5.14834 44.3799 5.06287 45.3147 5.05466 46.2519C5.02937 47.3571 5.17549 48.4596 5.48779 49.5199C5.7459 50.3745 6.17968 51.1654 6.7612 51.8418C7.31201 52.4605 8.00472 52.9356 8.77959 53.2263C9.64081 53.5339 10.5509 53.681 11.465 53.6603C12.6376 53.6705 13.8053 53.5067 14.9301 53.1742C15.9905 52.8572 17.0164 52.4341 17.9923 51.9113C18.9691 51.3861 19.9096 50.796 20.8077 50.1449C21.7172 49.491 22.6239 48.8313 23.5277 48.1658C24.4315 47.5004 25.3555 46.8696 26.2998 46.2736C27.2465 45.6723 28.2488 45.1636 29.2927 44.7545L29.3057 48.6649Z" fill="#7B2180"/>
<path d="M40.2206 37.9884C40.2206 38.3052 40.2206 38.7349 40.1903 39.2904C40.163 39.8894 40.0921 40.4855 39.9781 41.0742C39.8568 41.7208 39.7139 42.4977 39.5449 43.4134C39.376 44.3292 39.2331 45.0887 39.1118 45.6876C38.9905 46.2865 38.9039 46.8117 38.8216 47.2587C38.7537 47.5818 38.7117 47.9098 38.696 48.2396C38.696 48.5694 38.696 48.8689 38.696 49.1466C38.7005 49.3908 38.731 49.6337 38.787 49.8714C38.8208 50.0487 38.9016 50.2136 39.0208 50.3488C39.0826 50.4068 39.1557 50.4513 39.2354 50.4797C39.3151 50.5081 39.3999 50.5197 39.4843 50.5137C39.8057 50.5005 40.123 50.436 40.4242 50.3228C40.8271 50.1769 41.2194 50.0029 41.598 49.802C42.0311 49.585 42.4383 49.3333 42.8714 49.0598C43.3045 48.7864 43.7376 48.4913 44.1058 48.1918C44.474 47.8924 44.8551 47.5799 45.18 47.2804C45.4623 47.023 45.723 46.7429 45.9596 46.4428C45.9596 46.829 45.9596 47.1849 45.9596 47.5018C45.9596 47.8186 45.9596 48.1224 45.9596 48.4088C45.9596 48.6953 45.9596 48.9947 45.9596 49.3029C45.9596 49.611 45.9596 49.9495 45.9596 50.3271C45.6567 50.6176 45.3371 50.8901 45.0024 51.143C44.6212 51.4295 44.2011 51.7203 43.7376 52.0111C43.2742 52.3018 42.7848 52.5796 42.265 52.8443C41.755 53.1091 41.23 53.3438 40.6927 53.5474C40.1901 53.7436 39.675 53.906 39.1508 54.0335C38.6947 54.1492 38.2265 54.2104 37.7561 54.2158C37.366 54.2275 36.9795 54.1378 36.6343 53.9554C36.3151 53.7753 36.0399 53.5262 35.8287 53.2263C35.5891 52.8825 35.3982 52.5071 35.2613 52.1109C35.0941 51.6375 34.9595 51.1531 34.8584 50.6613C34.4661 51.1813 34.0392 51.6743 33.5807 52.1369C33.1385 52.5729 32.6603 52.9707 32.1514 53.3261C31.6914 53.6461 31.1957 53.9112 30.6744 54.116C30.2123 54.2998 29.7205 54.3969 29.2234 54.4024C28.8535 54.4051 28.4863 54.3389 28.1406 54.2071C27.7895 54.0712 27.4792 53.847 27.2397 53.5561C26.9525 53.2026 26.7416 52.7932 26.6203 52.3539C26.4559 51.7504 26.38 51.1261 26.395 50.5007C26.366 49.3131 26.4839 48.1265 26.7459 46.9679C27.2006 45.2129 27.5292 43.4275 27.7291 41.6253C27.7594 41.4517 27.8027 41.2174 27.859 40.9179C27.9225 40.5861 28.0064 40.2585 28.1103 39.9371C28.2249 39.5715 28.3624 39.2134 28.5217 38.8651C28.678 38.517 28.8712 38.1867 29.0978 37.8799C29.3194 37.5949 29.5891 37.3511 29.8948 37.1594C30.1984 36.971 30.5469 36.8676 30.904 36.86C31.3664 36.8533 31.8238 36.9574 32.238 37.1638C32.354 37.2283 32.4509 37.3227 32.5186 37.437C32.5863 37.5514 32.6225 37.6818 32.6235 37.8148C32.5166 38.6047 32.3983 39.3642 32.2683 40.0933C32.1384 40.8224 32.0041 41.5602 31.8742 42.298L31.441 44.7675C31.2808 45.6746 31.1508 46.3994 31.0512 46.9375C30.9516 47.4757 30.8736 47.9271 30.813 48.2656C30.7524 48.6041 30.722 48.7777 30.722 48.7864C30.7219 48.9976 30.7422 49.2084 30.7827 49.4157C30.8203 49.6013 30.883 49.7809 30.9689 49.9495C31.0453 50.0984 31.1532 50.2287 31.2851 50.3315C31.4184 50.4282 31.5797 50.4785 31.7442 50.4747C32.0207 50.4698 32.2922 50.3999 32.5369 50.2707C32.8236 50.1187 33.0804 49.9157 33.2948 49.6718C33.5638 49.4009 33.7837 49.0851 33.9445 48.7387C34.1507 48.3278 34.2966 47.8893 34.3777 47.4367L36.3094 37.8538C36.362 37.6902 36.4515 37.5409 36.5709 37.4174C36.6903 37.294 36.8365 37.1998 36.9981 37.1421C37.4254 36.9439 37.8917 36.8445 38.3625 36.8513C38.8405 36.8282 39.3157 36.9378 39.7355 37.1681C39.8822 37.2489 40.0046 37.3676 40.0899 37.5118C40.1752 37.6561 40.2204 37.8207 40.2206 37.9884Z" fill="#7B2180"/>
<path d="M58.6461 50.4356C57.52 51.0909 56.5194 51.6682 55.6402 52.1716C54.7609 52.6751 53.9813 53.0743 53.2969 53.4042C52.7054 53.6921 52.0946 53.9386 51.4691 54.142C51.0004 54.2962 50.5113 54.3796 50.0181 54.3894C49.1676 54.4018 48.3398 54.1146 47.6792 53.5778C46.9363 52.9483 46.3554 52.1489 45.9856 51.2472C45.4853 50.0709 45.143 48.8333 44.9678 47.5668C44.7267 45.9551 44.6123 44.327 44.6256 42.6973C44.6256 41.9899 44.6559 41.2434 44.7122 40.4448C44.7685 39.6463 44.8508 38.8564 44.9548 38.0708C44.6039 38.0187 44.3267 37.971 44.1362 37.9233L43.5168 37.7887C43.3002 37.741 43.023 37.6932 42.6852 37.6412C42.3473 37.5891 41.8666 37.524 41.2298 37.4459C40.9971 37.4234 40.773 37.3461 40.5758 37.2202C40.4339 37.1186 40.3181 36.9848 40.238 36.8296C40.1699 36.6803 40.1288 36.5201 40.1167 36.3565C40.1167 36.1959 40.1167 36.057 40.1167 35.9225C40.1191 35.8228 40.1537 35.7265 40.2154 35.6482C40.2771 35.5699 40.3626 35.5139 40.4589 35.4885C40.7374 35.38 41.0284 35.3071 41.3251 35.2715C41.717 35.2177 42.112 35.1901 42.5076 35.189C42.9407 35.189 43.3479 35.189 43.742 35.189L44.7989 35.2151C45.0137 35.2315 45.2296 35.23 45.4442 35.2107C45.7525 33.659 46.1532 32.1271 46.644 30.6233C47.0792 29.2662 47.6239 27.9468 48.2726 26.6782C48.7843 25.6627 49.4523 24.7342 50.252 23.9266C50.5383 23.6126 50.8842 23.3588 51.2694 23.18C51.6546 23.0011 52.0714 22.9009 52.4956 22.885C52.9883 22.8848 53.4691 23.0363 53.873 23.319C54.3023 23.614 54.664 23.9972 54.9342 24.4431C55.2448 24.9506 55.4729 25.5043 55.6098 26.0836C55.771 26.7249 55.8511 27.384 55.8481 28.0453C55.8425 28.6466 55.7595 29.2447 55.6012 29.8247C55.4272 30.4772 55.2042 31.1156 54.9342 31.7344C54.64 32.4075 54.3089 33.0639 53.9423 33.7004C53.5611 34.3688 53.1626 35.0285 52.7382 35.6795C52.9112 35.6379 53.0907 35.6305 53.2666 35.6578C53.5135 35.6838 53.795 35.6968 54.1329 35.7098L55.1767 35.7359L56.2639 35.7663L57.2471 35.801L58.0007 35.8357C58.1155 35.8429 58.2256 35.8843 58.3167 35.9547C58.4078 36.0251 58.4757 36.1212 58.5118 36.2306C58.6249 36.5298 58.6778 36.8484 58.6677 37.1681C58.6844 37.5562 58.5598 37.9372 58.3169 38.2401C58.2293 38.3659 58.1144 38.4702 57.9809 38.5454C57.8474 38.6205 57.6987 38.6645 57.5459 38.6741H50.7761C50.4339 39.1428 50.0917 39.6029 49.7452 40.0542C49.3987 40.5056 49.0782 40.9222 48.7837 41.2738C48.736 42.0029 48.697 42.7147 48.6624 43.4178C48.6624 43.7259 48.6364 44.0384 48.6277 44.3595C48.6191 44.6807 48.6018 45.0019 48.5931 45.3187C48.5844 45.6355 48.5931 45.9393 48.5671 46.2344C48.5411 46.5296 48.5671 46.7943 48.5671 47.0417C48.5556 47.5808 48.6139 48.1191 48.7404 48.6432C48.8359 49.029 49.0099 49.391 49.2515 49.7065C49.4681 49.9736 49.7501 50.18 50.0701 50.3054C50.4172 50.4308 50.784 50.4926 51.1529 50.4877C51.4674 50.4763 51.7783 50.4177 52.0755 50.3141C52.4902 50.1796 52.8954 50.0172 53.2882 49.828C53.7214 49.624 54.1892 49.394 54.6743 49.0989C55.1594 48.8037 55.6445 48.5086 56.1166 48.1744C56.5887 47.8403 57.0435 47.4887 57.4766 47.1198C57.893 46.7677 58.2865 46.3894 58.6548 45.9871L58.6461 50.4356ZM53.0154 28.1712C53.0154 28.026 53.0052 27.881 52.9851 27.7372C52.9689 27.5878 52.931 27.4415 52.8724 27.3032C52.8154 27.1631 52.721 27.0415 52.5996 26.9516C52.4454 26.8512 52.2634 26.8026 52.0798 26.8127C51.7766 26.8127 51.4648 27.0818 51.1529 27.6157C50.7928 28.2714 50.4927 28.9585 50.2563 29.6685C49.9705 30.4974 49.6976 31.4045 49.4464 32.4157C49.1952 33.427 48.9613 34.3905 48.749 35.3323L49.2774 35.38C49.455 35.38 49.6369 35.406 49.8232 35.4234C50.1784 34.8331 50.5465 34.1908 50.9277 33.5051C51.3088 32.8194 51.651 32.138 51.9542 31.4696C52.2381 30.8607 52.4911 30.2379 52.7122 29.6034C52.8968 29.1469 53.0051 28.663 53.0327 28.1712H53.0154Z" fill="#7B2180"/>
<path d="M63.181 54.3764C62.1907 54.3987 61.2089 54.1891 60.3136 53.7645C59.5192 53.3801 58.8196 52.8243 58.2649 52.1369C57.709 51.4295 57.293 50.6223 57.0392 49.7586C56.763 48.838 56.6243 47.8815 56.6277 46.9202C56.6481 46.1348 56.7719 45.3556 56.9959 44.6026C57.2384 43.7086 57.494 42.91 57.7538 42.2156C58.0146 41.5224 58.3455 40.8578 58.7414 40.2322C59.1231 39.6143 59.5897 39.0533 60.1274 38.5656C60.6523 38.0862 61.2541 37.6988 61.9076 37.4199C62.6009 37.1267 63.3467 36.979 64.0992 36.9859C64.7226 36.9796 65.3419 37.087 65.927 37.3027C66.4664 37.4945 66.9636 37.7892 67.391 38.1707C67.8096 38.5565 68.1417 39.0269 68.3656 39.5508C68.6073 40.1216 68.7282 40.7363 68.7207 41.3563C68.6832 42.2003 68.4377 43.0219 68.0061 43.7476C67.5667 44.5825 67.0062 45.3474 66.3428 46.0175C65.6698 46.6781 64.9107 47.2446 64.0862 47.7014C63.1909 48.2036 62.2364 48.5915 61.2449 48.8559C61.3976 49.1266 61.5714 49.3849 61.7646 49.6284C61.9121 49.8148 62.0874 49.9773 62.2844 50.1101C62.4538 50.2216 62.6415 50.3024 62.8388 50.3488C63.0432 50.3969 63.2526 50.4202 63.4625 50.4183C64.2223 50.4003 64.9736 50.2535 65.6845 49.9843C66.4705 49.7056 67.2312 49.36 67.9584 48.9513C68.6828 48.5473 69.3802 48.0964 70.0461 47.6016C70.6296 47.1745 71.1864 46.7122 71.7137 46.2171L73.9746 48.5217C72.9751 49.5944 71.8774 50.5709 70.6958 51.4382C70.189 51.8028 69.652 52.1586 69.0716 52.5058C68.486 52.8615 67.8751 53.1734 67.2437 53.4389C66.6042 53.7135 65.9419 53.9314 65.2643 54.09C64.5837 54.2679 63.8843 54.364 63.181 54.3764ZM60.8377 46.0001C61.3162 45.9886 61.7876 45.8809 62.2237 45.6833C62.7197 45.4712 63.1869 45.197 63.6141 44.8674C64.0933 44.48 64.5174 44.0288 64.8745 43.5263C65.2135 43.1337 65.4277 42.6486 65.4896 42.1331C65.5081 41.6909 65.4079 41.2517 65.1994 40.8615C65.1375 40.7205 65.0381 40.5994 64.912 40.5113C64.786 40.4233 64.6381 40.3717 64.4847 40.3624C64.0361 40.3496 63.5909 40.4433 63.1853 40.6358C62.8396 40.8088 62.5341 41.0528 62.2887 41.3519C62.0431 41.6497 61.8471 41.9853 61.7083 42.3458C61.5611 42.719 61.3878 43.1791 61.1972 43.7303C61.0286 44.1664 60.9193 44.6233 60.8724 45.0887C60.8493 45.4475 60.8377 45.7513 60.8377 46.0001Z" fill="#7B2180"/>
<path d="M132.664 70.5604C132.069 70.8271 131.508 71.1668 130.996 71.5716C130.455 72.0056 129.914 72.4396 129.364 72.9431C128.813 73.4465 128.242 73.9673 127.653 74.5185C127.052 75.0788 126.412 75.5952 125.738 76.0636C125.019 76.5587 124.273 77.0137 123.503 77.4263C122.644 77.8786 121.748 78.2589 120.826 78.5634C119.772 78.9084 118.691 79.1681 117.595 79.3403C116.306 79.5398 115.002 79.6355 113.697 79.6267C112.219 79.6495 110.755 79.327 109.422 78.685C108.173 78.0689 107.066 77.1999 106.169 76.133C105.25 75.0313 104.545 73.7668 104.09 72.4049C103.602 70.9671 103.356 69.4578 103.363 67.939C103.371 66.7646 103.489 65.5935 103.713 64.4409C103.958 63.1496 104.295 61.8775 104.723 60.6347C105.172 59.3108 105.708 58.0176 106.325 56.7634C106.96 55.4819 107.684 54.2463 108.491 53.0657C109.28 51.9009 110.162 50.8022 111.129 49.7803C112.06 48.7981 113.089 47.9139 114.2 47.1415C115.263 46.4049 116.42 45.8124 117.639 45.3795C118.845 44.9547 120.115 44.7389 121.394 44.7415C122.267 44.7419 123.133 44.8886 123.958 45.1755C124.821 45.4738 125.615 45.9432 126.293 46.5556C127.011 47.2179 127.587 48.0197 127.986 48.9123C128.447 49.9692 128.671 51.1141 128.645 52.2671C128.635 53.1608 128.489 54.0478 128.211 54.8972C127.936 55.7892 127.556 56.6457 127.081 57.4491C126.596 58.2692 126.029 59.0371 125.387 59.7407C124.761 60.4374 124.058 61.0606 123.291 61.5982C122.567 62.1063 121.783 62.5218 120.956 62.8351C120.184 63.136 119.364 63.2919 118.535 63.2952C117.716 63.3448 116.898 63.1959 116.149 62.8612C115.912 62.7532 115.712 62.5789 115.572 62.3594C115.432 62.14 115.359 61.8846 115.36 61.6242C115.36 61.5288 115.36 61.4203 115.36 61.2901C115.36 61.1599 115.36 61.0253 115.36 60.8864C115.359 60.6661 115.371 60.4458 115.395 60.2268C115.414 60.0132 115.46 59.8031 115.534 59.6018C115.596 59.4263 115.702 59.2695 115.841 59.1461C115.998 59.0207 116.195 58.9574 116.396 58.9681C116.521 58.9664 116.646 58.9869 116.764 59.0289L117.115 59.1634C117.266 59.2156 117.421 59.2591 117.578 59.2936C117.806 59.34 118.038 59.3604 118.271 59.3544C119.054 59.3465 119.828 59.1796 120.545 58.864C121.314 58.5314 122.016 58.0608 122.615 57.4752C123.243 56.8593 123.754 56.1343 124.123 55.3355C124.523 54.4805 124.724 53.5456 124.712 52.6013C124.714 52.0934 124.644 51.5877 124.504 51.0996C124.367 50.639 124.134 50.2129 123.819 49.8497C123.48 49.4746 123.063 49.1784 122.598 48.9817C122.022 48.7502 121.404 48.6394 120.783 48.6562C119.929 48.6583 119.086 48.8494 118.314 49.2161C117.48 49.611 116.704 50.1208 116.01 50.7307C115.231 51.4105 114.527 52.1714 113.909 53.0006C113.238 53.897 112.626 54.8365 112.077 55.8129C111.511 56.8221 111.004 57.8641 110.561 58.9334C110.119 59.9908 109.734 61.0716 109.409 62.1711C109.104 63.1986 108.861 64.2435 108.681 65.3003C108.52 66.2218 108.434 67.1552 108.426 68.0909C108.4 69.1976 108.546 70.3016 108.859 71.3633C109.116 72.2175 109.548 73.0085 110.128 73.6852C110.68 74.303 111.372 74.7779 112.147 75.0697C113.008 75.3769 113.918 75.524 114.832 75.5037C116.004 75.5121 117.172 75.3483 118.297 75.0176C119.358 74.7014 120.384 74.2783 121.359 73.7547C122.336 73.2279 123.278 72.6379 124.179 71.9883L126.899 70.0092C127.804 69.3495 128.727 68.7072 129.671 68.117C130.617 67.514 131.619 67.0052 132.664 66.5979V70.5604Z" fill="#7B2180"/>
<path d="M143.579 59.8665C143.579 60.1833 143.579 60.613 143.544 61.1685C143.517 61.7674 143.446 62.3636 143.332 62.9523C143.215 63.5989 143.068 64.3758 142.899 65.2915C142.73 66.2073 142.587 66.9668 142.466 67.5657C142.344 68.1646 142.258 68.6854 142.171 69.1368C142.104 69.4599 142.064 69.7879 142.05 70.1177C142.05 70.4475 142.05 70.747 142.05 71.0247C142.054 71.2689 142.085 71.5119 142.141 71.7495C142.178 71.9255 142.259 72.0895 142.375 72.2269C142.437 72.2844 142.51 72.3287 142.59 72.3571C142.669 72.3854 142.754 72.3973 142.838 72.3918C143.16 72.379 143.477 72.3145 143.778 72.2009C144.181 72.055 144.573 71.881 144.952 71.6801C145.368 71.4602 145.792 71.2128 146.225 70.9379C146.658 70.6602 147.07 70.3694 147.464 70.0699C147.858 69.7705 148.213 69.4623 148.534 69.1629C148.815 68.9044 149.076 68.6243 149.314 68.3252C149.314 68.7115 149.314 69.0674 149.314 69.3842C149.314 69.701 149.314 70.0048 149.314 70.2913C149.314 70.5777 149.314 70.8772 149.314 71.1853C149.314 71.4935 149.314 71.832 149.314 72.2096C149.013 72.4998 148.695 72.7709 148.361 73.0211C147.98 73.3119 147.559 73.6027 147.096 73.8892C146.632 74.1756 146.143 74.4577 145.619 74.7224C145.109 74.9846 144.586 75.2193 144.051 75.4255C143.548 75.6212 143.033 75.7836 142.509 75.9116C142.052 76.0273 141.582 76.0885 141.11 76.0939C140.72 76.105 140.334 76.0153 139.988 75.8335C139.67 75.6532 139.397 75.4041 139.187 75.1044C138.945 74.762 138.754 74.3863 138.62 73.989C138.453 73.5151 138.317 73.0309 138.212 72.5394C137.803 73.0704 137.357 73.5722 136.878 74.0411C136.434 74.4758 135.954 74.8735 135.445 75.2302C134.985 75.5511 134.489 75.8162 133.968 76.0201C133.507 76.2039 133.017 76.301 132.521 76.3066C132.15 76.3093 131.781 76.2431 131.434 76.1113C131.084 75.9747 130.776 75.7506 130.537 75.4603C130.247 75.1081 130.035 74.6984 129.914 74.2581C129.749 73.6545 129.673 73.0303 129.688 72.4049C129.664 71.2174 129.782 70.0313 130.039 68.8721C130.495 67.1145 130.822 65.326 131.018 63.5208C131.053 63.3472 131.096 63.1128 131.148 62.8134C131.211 62.4814 131.295 62.1538 131.399 61.8325C131.516 61.4676 131.653 61.1097 131.811 60.7605C131.966 60.4109 132.161 60.0804 132.391 59.7753C132.605 59.4896 132.869 59.2454 133.171 59.0549C133.475 58.867 133.823 58.7637 134.18 58.7554C134.643 58.746 135.101 58.8503 135.514 59.0592C135.631 59.1205 135.73 59.2118 135.801 59.3238C135.872 59.4359 135.912 59.5647 135.917 59.6972C135.813 60.4871 135.694 61.2466 135.562 61.9757C135.432 62.7049 135.297 63.4383 135.167 64.1805C135.038 64.9226 134.886 65.7429 134.734 66.65L134.34 68.82C134.245 69.3668 134.163 69.8095 134.102 70.148C134.041 70.4866 134.015 70.6602 134.015 70.6688C134.013 70.8802 134.033 71.0912 134.076 71.2981C134.11 71.4848 134.173 71.6649 134.262 71.832C134.338 71.981 134.446 72.1114 134.578 72.2139C134.71 72.31 134.87 72.3603 135.033 72.3571C135.31 72.3522 135.581 72.2823 135.826 72.1531C136.113 72.0023 136.37 71.7992 136.584 71.5542C136.853 71.2825 137.074 70.967 137.238 70.6211C137.444 70.2103 137.59 69.7717 137.671 69.3191L139.607 59.7363C139.658 59.5725 139.746 59.4228 139.865 59.2992C139.984 59.1757 140.13 59.0816 140.291 59.0245C140.719 58.8267 141.185 58.7274 141.656 58.7337C142.134 58.7106 142.609 58.8203 143.029 59.0506C143.187 59.1225 143.322 59.2367 143.419 59.3808C143.516 59.5248 143.571 59.6929 143.579 59.8665Z" fill="#7B2180"/>
<path d="M162 72.3138C160.878 72.9692 159.878 73.5464 158.998 74.0498C158.119 74.5533 157.335 74.9526 156.651 75.2824C156.06 75.5711 155.449 75.8176 154.823 76.0202C154.356 76.1741 153.868 76.2574 153.376 76.2676C152.525 76.2785 151.696 75.9915 151.033 75.456C150.292 74.826 149.712 74.0267 149.344 73.1254C148.842 71.9494 148.498 70.7118 148.322 69.4451C148.083 67.8317 147.968 66.2022 147.979 64.5712C147.979 63.8681 148.01 63.1173 148.07 62.3231C148.131 61.5288 148.209 60.7346 148.313 59.9491C147.958 59.897 147.685 59.8449 147.49 59.8015L146.871 59.6626C146.654 59.6192 146.377 59.5715 146.043 59.5194C145.71 59.4673 145.22 59.4022 144.584 59.3241C144.352 59.2989 144.128 59.2217 143.93 59.0984C143.787 58.9974 143.672 58.8614 143.596 58.7035C143.524 58.5569 143.482 58.3977 143.471 58.2347C143.471 58.0742 143.471 57.9309 143.471 57.8007C143.471 57.6185 143.588 57.4752 143.817 57.3667C144.095 57.2561 144.386 57.1818 144.683 57.1454C145.076 57.096 145.47 57.0685 145.866 57.0629C146.299 57.0629 146.706 57.0629 147.1 57.0629L148.157 57.0933C148.373 57.1025 148.588 57.0938 148.802 57.0673C149.111 55.5155 149.511 53.9836 150.002 52.4798C150.436 51.1222 150.981 49.8027 151.631 48.5347C152.14 47.5145 152.805 46.5802 153.602 45.7658C153.888 45.4515 154.234 45.1973 154.619 45.0178C155.004 44.8382 155.421 44.737 155.845 44.7198C156.338 44.7197 156.819 44.8712 157.223 45.1539C157.653 45.4476 158.015 45.8311 158.284 46.2779C158.594 46.7854 158.822 47.3392 158.959 47.9185C159.121 48.5583 159.201 49.2159 159.198 49.8758C159.192 50.4786 159.109 51.0781 158.951 51.6596C158.779 52.3114 158.556 52.9486 158.284 53.5648C157.992 54.2407 157.661 54.8986 157.292 55.5352C156.915 56.2036 156.512 56.8372 156.092 57.5143C156.266 57.478 156.446 57.478 156.62 57.5143C156.863 57.5143 157.149 57.5533 157.487 57.562L158.531 57.5924L159.618 57.6228L160.601 57.6575L161.355 57.6922C161.47 57.6976 161.581 57.7384 161.672 57.809C161.764 57.8797 161.831 57.9768 161.866 58.0872C161.979 58.3863 162.032 58.7049 162.022 59.0246C162.039 59.4115 161.914 59.7913 161.671 60.0923C161.582 60.215 161.466 60.3158 161.333 60.3872C161.199 60.4586 161.051 60.4988 160.9 60.5046H154.13C153.792 60.9776 153.446 61.4377 153.099 61.889C152.753 62.3404 152.432 62.7571 152.142 63.1086C152.094 63.8377 152.051 64.5495 152.016 65.2526C152.016 65.5607 151.995 65.8732 151.982 66.1944C151.969 66.5155 151.96 66.8367 151.947 67.1535C151.934 67.4703 151.925 67.7741 151.921 68.0693C151.917 68.3644 151.921 68.6291 151.921 68.8765C151.909 69.4159 151.968 69.9545 152.099 70.478C152.192 70.8645 152.366 71.2269 152.61 71.5413C152.824 71.8104 153.107 72.0159 153.428 72.1359C153.774 72.2653 154.142 72.3286 154.511 72.3225C154.826 72.3108 155.136 72.2523 155.434 72.1489C155.846 72.0125 156.25 71.8501 156.642 71.6628C157.084 71.4574 157.547 71.2143 158.032 70.9337C158.518 70.6516 158.998 70.3434 159.47 70.0093C159.943 69.6751 160.402 69.3235 160.835 68.9546C161.25 68.6026 161.642 68.2242 162.009 67.8219L162 72.3138ZM156.369 50.0494C156.369 49.9044 156.36 49.7595 156.343 49.6154C156.326 49.4657 156.287 49.3194 156.226 49.1814C156.169 49.0414 156.075 48.9198 155.953 48.8299C155.799 48.7295 155.617 48.6808 155.434 48.691C155.13 48.691 154.823 48.9601 154.511 49.4939C154.147 50.1482 153.845 50.8355 153.61 51.5467C153.321 52.3771 153.051 53.2929 152.8 54.294C152.549 55.2951 152.318 56.2673 152.107 57.2105L152.636 57.2539L153.181 57.3016C153.532 56.7114 153.9 56.0691 154.282 55.3833C154.663 54.6976 155.005 54.0162 155.312 53.3478C155.62 52.6795 155.871 52.0458 156.07 51.4816C156.246 51.0232 156.346 50.5397 156.369 50.0494Z" fill="#7B2180"/>
</g>
<defs>
<clipPath id="clip0_2_1848">
<rect width="162" height="80" fill="white"/>
</clipPath>
</defs>
</svg>
